<?xml version="1.0" encoding="UTF-8"?><svg id="Layer_1" xmlns="http://www.w3.org/2000/svg" viewBox="0 0 50 50"><g id="facebook"><circle id="circle" cx="25" cy="25" r="25" style="fill:#191817; stroke-width:0px;"/><path d="M28.76,20.16v4.67h6.91l-1.11,7.2h-5.8v17.69c-1.23.18-2.48.28-3.76.28-1.37,0-2.71-.11-4.02-.33v-17.64h-6.33v-7.2h6.33v-5.48c.02-2.57.57-5.24,2.73-7.34,1.5-1.45,3.65-2.31,6.68-2.35,1.95.02,3.8.19,5.57.48v6.13h-3.14c-1.11,0-2.04.25-2.76.8-.89.72-1.29,1.77-1.3,3.09Z" style="fill:#fff; stroke-width:0px;"/></g></svg>